<?xml version="1.0" encoding="UTF-8"?>
<svg width="128pt" height="128pt" version="1.1" viewBox="0 0 128 128" xmlns="http://www.w3.org/2000/svg">
 <path d="m72.625 125.68c6.2852-2.7422 9.2148-2.3711 14.367 0.33594 5.2031 2.7109 10.379 2.7109 16.516-0.40625 6.0742-3.1172 11.043-1.3398 13.832 0.33594 2.2773 1.3945 4.582 1.9492 8.0586 1.9492v-12.422c-5.2188-0.023437-7.4531-1.8086-7.4531-1.8086-5.375-3.3008-10.301-2.6406-17.051 0.87109-3.8789 2.0156-10 1.4883-14.367-0.73828-5.9414-3.1484-9.3203-2.3828-15.578 0.40234-4.8555 2.1523-9.2305 2.1484-14.031 0-6.2891-2.7969-9.5117-3.5508-15.508-0.40234-4.3125 2.2266-10.527 2.7539-14.371 0.73828-6.7852-3.5117-11.625-4.1719-16.984-0.87109 0 0-2.3359 1.7812-7.4531 1.8086v12.422c3.2305 0.003906 5.75-0.625 7.9258-1.9492 2.7461-1.6914 7.8789-3.4492 13.961-0.33594 6.1289 3.1172 11.301 3.1172 16.449 0.40625 5.2031-2.7031 8.0742-3.1953 14.367-0.47266 6.1016 3.1094 12.137 2.8242 17.32 0.13672z"/>
 <path d="m118.01 95.531c-10.562-5.7891-15.16 1.2305-20.812 1.207v-28.059l8.7266-20.211c1.3359-3.0859 0.007813-5.9258-3.1562-7.3125l-5.3047-2.1484v-17.457h-10.27v-9.1992h-14.301v-12.352h-17.793v12.352h-14.297v9.1992h-10.273v17.457l-5.3047 2.1484c-3.1758 1.3867-4.5039 4.2266-3.1562 7.3125l8.7305 20.211v28.062c-5.6641 0.023437-10.492-6.8867-20.812-1.1406 0 0-2.9648 1.668-7.4531 1.7461v12.086c3.5078-0.27734 5.1836-0.83594 7.8555-2.2852 2.8008-1.6055 7.9492-3.1328 14.031 0 6.1289 3.0898 11.301 3.0898 16.449 0.40234 5.2031-2.7266 9.7188-2.8594 14.57-0.40234 6.0977 3.0898 10.887 3.125 17.051 0.066406 4.9531-2.5352 9.418-2.3906 14.566 0.33594 5.2031 2.6914 10.379 2.6914 16.516-0.40234 6.0742-3.1328 11.199-1.5625 14.031 0 2.4961 1.3086 4.2461 2.0078 7.8555 2.2852l0.003906-12.152c-4.5898-0.11719-7.4531-1.75-7.4531-1.75zm-28.129-59.75-25.918-10.672-25.848 10.672v-7.0508h10.207v-9.0625h31.355v9.0625h10.207z"/>
</svg>
